# Blender v2.93.4 OBJ File: 'RapidReact.blend'
# www.blender.org
mtllib RapidReact_SpeakerCase.mtl
o SpeakerCase_Cube.016
v 0.922538 1.000000 0.077462
v 0.922538 1.000000 3.422540
v 0.866063 1.066655 0.133937
v 0.866063 1.066655 3.366063
v 0.922538 -0.917940 3.422538
v 0.922538 -0.917940 0.077462
v 0.922538 1.043375 0.077462
v 0.922538 1.043375 3.422538
v 0.985258 0.985258 0.000000
v 0.985258 1.000000 0.014742
v 1.000000 0.985258 0.014742
v 0.985258 1.000000 3.485259
v 0.985258 0.985258 3.500000
v 1.000000 0.985258 3.485259
v 0.985258 -0.985258 3.500000
v 0.985258 -1.000000 3.485259
v 1.000000 -0.985258 3.485259
v 0.985258 -0.985258 0.000000
v 1.000000 -0.985258 0.014742
v 0.985258 -1.000000 0.014742
v 0.922538 -0.986040 0.077462
v 0.936498 -1.000000 0.063502
v 0.936498 -1.000000 3.436500
v 0.922538 -0.986040 3.422538
v 0.922538 0.985258 3.500000
v 0.922538 1.000000 3.485259
v 0.922538 -0.985258 3.500000
v 0.922538 -1.000000 3.485259
v 0.922538 -1.000000 3.436498
v 0.911520 1.000000 3.422538
v 0.911520 0.985258 3.500000
v 0.911520 -0.986040 3.422538
v 0.911520 -0.985258 3.500000
v 0.911520 1.000000 3.485259
v 0.911520 -1.000000 3.436498
v 0.911520 -1.000000 3.485259
v 0.911520 0.989805 3.422422
v 0.922538 0.989805 3.422540
v 0.922538 0.989805 3.476863
v 0.922538 0.975214 3.482651
v 0.911520 0.975214 3.482651
v 0.911520 -0.989805 3.476863
v 0.922538 -0.989805 3.476863
v 0.922538 -0.975214 3.489658
v 0.922538 -0.989805 3.434540
v 0.911520 -0.975214 3.489658
v 0.911520 0.989805 3.476863
v 0.911520 -0.989805 3.434540
v 1.000000 -0.985258 3.436500
v 1.000000 0.985258 3.436500
v 0.985258 -1.000000 3.436500
v 0.985258 1.000000 3.422540
v -0.922538 1.000000 0.077462
v -0.922538 1.000000 3.422540
v -0.866063 1.066655 0.133937
v -0.866063 1.066655 3.366063
v -0.922538 -0.917940 3.422538
v -0.922538 -0.917940 0.077462
v -0.922538 1.043375 0.077462
v -0.922538 1.043375 3.422538
v -0.985258 0.985258 0.000000
v -0.985258 1.000000 0.014742
v -1.000000 0.985258 0.014742
v -0.985258 1.000000 3.485259
v -0.985258 0.985258 3.500000
v -1.000000 0.985258 3.485259
v -0.985258 -0.985258 3.500000
v -0.985258 -1.000000 3.485259
v -1.000000 -0.985258 3.485259
v -0.985258 -0.985258 0.000000
v -1.000000 -0.985258 0.014742
v -0.985258 -1.000000 0.014742
v -0.922538 -0.986040 0.077462
v -0.936498 -1.000000 0.063502
v -0.936498 -1.000000 3.436500
v -0.922538 -0.986040 3.422538
v -0.922538 0.985258 3.500000
v -0.922538 1.000000 3.485259
v 0.000000 1.000000 0.077462
v 0.000000 1.000000 3.422538
v 0.000000 -0.917940 0.077462
v 0.000000 -0.917940 3.422538
v 0.000000 1.043375 0.077462
v 0.000000 1.043375 3.422538
v 0.000000 1.066655 0.133937
v 0.000000 1.066655 3.366063
v 0.000000 -0.985258 0.000000
v 0.000000 -1.000000 0.014742
v 0.000000 -0.985258 3.500000
v 0.000000 -1.000000 3.485259
v 0.000000 0.985258 0.000000
v 0.000000 1.000000 0.014742
v 0.000000 0.985258 3.500000
v 0.000000 1.000000 3.485259
v 0.000000 -1.000000 0.063502
v 0.000000 -0.986040 0.077462
v 0.000000 -1.000000 3.436498
v 0.000000 -0.986040 3.422538
v -0.922538 -0.985258 3.500000
v -0.922538 -1.000000 3.485259
v -0.922538 -1.000000 3.436498
v -0.911520 1.000000 3.422538
v -0.911520 0.985258 3.500000
v -0.911520 -0.986040 3.422538
v -0.911520 -0.985258 3.500000
v -0.911520 1.000000 3.485259
v -0.911520 -1.000000 3.436498
v -0.911520 -1.000000 3.485259
v -0.911520 0.989805 3.422422
v -0.922538 0.989805 3.422540
v -0.922538 0.989805 3.476863
v -0.922538 0.975214 3.482651
v -0.911520 0.975214 3.482651
v -0.911520 -0.989805 3.476863
v -0.922538 -0.989805 3.476863
v -0.922538 -0.975214 3.489658
v -0.922538 -0.989805 3.434540
v -0.911520 -0.975214 3.489658
v -0.911520 0.989805 3.476863
v -0.911520 -0.989805 3.434540
v -1.000000 -0.985258 3.436500
v -1.000000 0.985258 3.436500
v -0.985258 -1.000000 3.436500
v -0.985258 1.000000 3.422540
vt 0.053643 0.417081
vt 0.014802 0.022770
vt 0.356616 0.024320
vt 0.356010 0.402478
vt 0.356372 0.000968
vt 0.356337 0.010573
vt 0.014327 0.009605
vt 0.014362 0.000000
vt 0.819119 0.422625
vt 0.955196 0.422624
vt 0.964448 0.430787
vt 0.819119 0.430788
vt 0.819121 0.701590
vt 0.955197 0.701590
vt 0.955197 0.710453
vt 0.819121 0.710453
vt 0.374462 0.022532
vt 0.370892 0.023511
vt 0.360521 0.015850
vt 0.372135 0.013047
vt 0.052728 0.422624
vt 0.046854 0.418590
vt 0.010736 0.015377
vt 0.011625 0.012295
vt 0.014328 0.014872
vt 0.358852 0.012553
vt 0.356339 0.015840
vt 0.357473 0.407553
vt 0.362537 0.403338
vt 0.009949 0.025607
vt 0.361863 0.024325
vt 0.002311 0.451073
vt 0.006258 0.450391
vt 0.004869 0.452837
vt 0.003794 0.452779
vt 0.376791 0.027156
vt 0.376792 0.392536
vt 0.369860 0.396881
vt 0.819121 0.689961
vt 0.964448 0.689961
vt 0.964448 0.692674
vt 0.819121 0.692675
vt 0.997465 0.374773
vt 0.997465 0.383396
vt 0.886888 0.383395
vt 0.886888 0.374772
vt 0.385221 0.027156
vt 0.385221 0.392536
vt 0.819121 0.699021
vt 0.957256 0.699021
vt 0.997467 0.091421
vt 0.886890 0.091421
vt 0.886890 0.088706
vt 0.997467 0.088706
vt 0.000000 0.014688
vt 0.000362 0.011187
vt 0.819119 0.433501
vt 0.964448 0.433500
vt 0.370911 0.009282
vt 0.886890 0.079344
vt 0.998803 0.079344
vt 0.997467 0.098125
vt 0.886890 0.098124
vt 0.997467 0.100991
vt 0.886890 0.100991
vt 0.000000 0.462961
vt 0.000003 0.459937
vt 0.002865 0.459357
vt 0.003003 0.464193
vt 0.997465 0.371907
vt 0.886888 0.371906
vt 0.008939 0.459950
vt 0.005924 0.459425
vt 0.007101 0.630503
vt 0.003546 0.631103
vt 0.004702 0.628856
vt 0.005801 0.628898
vt 0.004873 0.444150
vt 0.000926 0.444833
vt 0.000095 0.422624
vt 0.001186 0.620572
vt 0.003654 0.620977
vt 0.003849 0.617984
vt 0.006233 0.617955
vt 0.006363 0.620871
vt 0.006052 0.464253
vt 0.009027 0.618323
vt 0.008763 0.620421
vt 0.000931 0.618363
vt 0.009027 0.462992
vt 0.000113 0.025198
vt 0.038020 0.412048
vt 0.385221 0.422624
vt 0.385221 0.857981
vt 0.249145 0.857981
vt 0.249145 0.422624
vt 0.438858 0.005543
vt 0.741225 0.020144
vt 0.741832 0.398305
vt 0.400021 0.399855
vt 0.741589 0.421658
vt 0.399582 0.422624
vt 0.399547 0.413019
vt 0.741554 0.412052
vt 0.673793 0.430788
vt 0.683044 0.422625
vt 0.683044 0.710454
vt 0.683044 0.701590
vt 0.759679 0.400093
vt 0.757352 0.409578
vt 0.745738 0.406775
vt 0.756109 0.399114
vt 0.437944 0.000000
vt 0.432069 0.004034
vt 0.395956 0.407248
vt 0.399548 0.407752
vt 0.396846 0.410330
vt 0.744069 0.410072
vt 0.741556 0.406785
vt 0.742688 0.015068
vt 0.747752 0.019283
vt 0.395170 0.397018
vt 0.747080 0.398300
vt 0.106352 0.602654
vt 0.107835 0.600948
vt 0.108910 0.600890
vt 0.110299 0.603336
vt 0.762008 0.395469
vt 0.755075 0.025740
vt 0.762007 0.030086
vt 0.673793 0.692675
vt 0.673793 0.689961
vt 0.776313 0.374771
vt 0.776313 0.383394
vt 0.770437 0.030086
vt 0.770437 0.395469
vt 0.680985 0.699021
vt 0.776314 0.091421
vt 0.776314 0.088706
vt 0.385221 0.407936
vt 0.385584 0.411437
vt 0.673793 0.433502
vt 0.756128 0.413344
vt 0.774977 0.079344
vt 0.776314 0.098124
vt 0.776314 0.100990
vt 0.104041 0.590766
vt 0.107045 0.589535
vt 0.106906 0.594370
vt 0.104045 0.593790
vt 0.776313 0.371905
vt 0.109966 0.594302
vt 0.112981 0.593778
vt 0.111142 0.423224
vt 0.109842 0.424829
vt 0.108744 0.424871
vt 0.107587 0.422624
vt 0.108914 0.609577
vt 0.104137 0.631103
vt 0.104967 0.608895
vt 0.107695 0.432750
vt 0.105228 0.433155
vt 0.107891 0.435743
vt 0.110405 0.432856
vt 0.110274 0.435772
vt 0.110093 0.589474
vt 0.113069 0.435404
vt 0.112804 0.433306
vt 0.104973 0.435364
vt 0.113069 0.590736
vt 0.385334 0.397427
vt 0.423235 0.010576
vt 0.113069 0.422624
vt 0.113069 0.857981
vt 0.662957 0.422625
vt 0.664570 0.422625
vt 0.664570 0.428228
vt 0.673793 0.428806
vt 0.673793 0.860922
vt 0.665245 0.860940
vt 0.665245 0.428823
vt 0.656301 0.853643
vt 0.656302 0.436119
vt 0.529506 0.853643
vt 0.529508 0.436118
vt 0.664570 0.861534
vt 0.529506 0.861534
vt 0.529508 0.428228
vt 0.664570 0.867138
vt 0.529506 0.867137
vt 0.529508 0.422624
vt 0.396058 0.422624
vt 0.394445 0.428227
vt 0.394445 0.422624
vt 0.385221 0.428805
vt 0.393769 0.428822
vt 0.393769 0.860938
vt 0.385221 0.860921
vt 0.402712 0.853643
vt 0.402713 0.436118
vt 0.394444 0.861533
vt 0.394444 0.867137
vn 1.0000 0.0000 0.0000
vn 0.0000 0.0000 1.0000
vn 0.0000 1.0000 0.0000
vn 0.0000 -1.0000 0.0000
vn 0.5774 0.5773 -0.5774
vn 0.5773 0.5773 0.5774
vn 0.5773 -0.5773 0.5774
vn 0.5774 -0.5773 -0.5774
vn 0.7071 0.0000 -0.7071
vn 0.7071 0.7071 0.0000
vn 0.7071 0.0000 0.7071
vn 0.7071 -0.7071 0.0000
vn 0.0000 0.1887 0.9820
vn -0.7071 -0.7071 0.0000
vn 0.0000 -0.7071 -0.7071
vn -1.0000 0.0000 0.0000
vn 0.0000 -0.7071 0.7071
vn 0.0000 0.7071 0.7071
vn 0.0000 0.0000 -1.0000
vn 0.0000 0.7071 -0.7071
vn 0.0001 -0.7071 -0.7071
vn -0.0054 -0.0057 1.0000
vn 0.0000 0.3687 0.9295
vn 0.0000 0.0036 1.0000
vn 0.0000 -0.6593 0.7519
vn -0.5774 0.5773 -0.5774
vn -0.5773 0.5773 0.5774
vn -0.5773 -0.5773 0.5774
vn -0.5774 -0.5773 -0.5774
vn -0.7071 0.0000 -0.7071
vn -0.7071 0.7071 0.0000
vn -0.7071 0.0000 0.7071
vn -0.0001 -0.7071 -0.7071
vn 0.0054 -0.0057 1.0000
vn -0.0002 0.0000 1.0000
vn 0.3811 0.9245 0.0000
vn 0.0000 0.9245 -0.3811
vn 0.0000 0.9245 0.3811
vn 0.0002 0.0000 1.0000
vn -0.3811 0.9245 0.0000
usemtl M_StandWood
s off
f 11/1/1 50/2/1 49/3/1 19/4/1
f 27/5/2 15/6/2 13/7/2 25/8/2
f 79/9/3 1/10/3 10/11/3 92/12/3
f 96/13/2 21/14/2 6/15/2 81/16/2
f 29/17/4 23/18/4 16/19/4 28/20/4
f 9/21/5 10/22/5 11/1/5
f 12/23/6 13/24/6 14/25/6
f 15/26/7 16/19/7 17/27/7
f 18/28/8 19/4/8 20/29/8
f 18/28/9 9/21/9 11/1/9 19/4/9
f 10/22/10 52/30/10 50/2/10 11/1/10
f 13/7/11 15/6/11 17/27/11 14/25/11
f 16/19/12 51/31/12 49/3/12 17/27/12
f 35/32/13 29/33/13 45/34/13 48/35/13
f 24/36/14 21/37/14 22/38/14 23/18/14
f 87/39/15 18/40/15 20/41/15 88/42/15
f 34/43/3 30/44/3 80/45/3 94/46/3
f 21/37/16 24/36/16 5/47/16 6/48/16
f 95/49/17 22/50/17 21/14/17 96/13/17
f 35/51/15 97/52/15 98/53/15 32/54/15
f 26/55/18 25/56/18 13/24/18 12/23/18
f 18/40/19 87/39/19 91/57/19 9/58/19
f 15/26/17 27/59/17 28/20/17 16/19/17
f 9/58/20 91/57/20 92/12/20 10/11/20
f 22/50/4 95/49/4 88/42/4 20/41/4
f 32/54/19 98/53/19 82/60/19 5/61/19
f 35/51/4 36/62/4 90/63/4 97/52/4
f 23/18/21 29/17/21 24/36/21
f 36/62/17 33/64/17 89/65/17 90/63/17
f 33/66/1 36/67/1 42/68/1 46/69/1
f 89/65/2 33/64/2 31/70/2 93/71/2
f 29/33/16 28/72/16 43/73/16 45/34/16
f 2/74/22 30/75/22 37/76/22 38/77/22
f 24/78/19 32/79/19 5/80/19
f 29/33/15 35/32/15 32/79/15 24/78/15
f 30/75/1 34/81/1 47/82/1 37/76/1
f 93/71/18 31/70/18 34/43/18 94/46/18
f 41/83/23 40/84/23 39/85/23 47/82/23
f 46/69/24 44/86/24 40/84/24 41/83/24
f 43/73/25 44/86/25 46/69/25 42/68/25
f 45/34/4 43/73/4 42/68/4 48/35/4
f 39/85/3 38/77/3 37/76/3 47/82/3
f 36/67/1 35/32/1 48/35/1 42/68/1
f 25/87/16 26/88/16 39/85/16 40/84/16
f 34/81/1 31/89/1 41/83/1 47/82/1
f 27/90/16 25/87/16 40/84/16 44/86/16
f 28/72/16 27/90/16 44/86/16 43/73/16
f 31/89/1 33/66/1 46/69/1 41/83/1
f 26/88/16 2/74/16 38/77/16 39/85/16
f 2/91/3 26/55/3 12/23/3 52/30/3
f 49/3/1 50/2/1 14/25/1 17/27/1
f 50/2/10 52/30/10 12/23/10 14/25/10
f 52/30/3 10/22/3 1/92/3 2/91/3
f 51/31/4 23/18/4 22/38/4 20/29/4
f 49/3/12 51/31/12 20/29/12 19/4/12
f 23/18/4 51/31/4 16/19/4
f 6/93/4 5/94/4 82/95/4 81/96/4
f 63/97/16 71/98/16 121/99/16 122/100/16
f 99/101/2 77/102/2 65/103/2 67/104/2
f 79/9/3 92/12/3 62/105/3 53/106/3
f 96/13/2 81/16/2 58/107/2 73/108/2
f 101/109/4 100/110/4 68/111/4 75/112/4
f 61/113/26 63/97/26 62/114/26
f 64/115/27 66/116/27 65/117/27
f 67/118/28 69/119/28 68/111/28
f 70/120/29 72/121/29 71/98/29
f 70/120/30 71/98/30 63/97/30 61/113/30
f 62/114/31 63/97/31 122/100/31 124/122/31
f 65/103/32 66/116/32 69/119/32 67/104/32
f 68/111/14 69/119/14 121/99/14 123/123/14
f 107/124/13 120/125/13 117/126/13 101/127/13
f 76/128/12 75/112/12 74/129/12 73/130/12
f 87/39/15 88/42/15 72/131/15 70/132/15
f 106/133/3 94/46/3 80/45/3 102/134/3
f 73/130/1 58/135/1 57/136/1 76/128/1
f 95/49/17 96/13/17 73/108/17 74/137/17
f 107/138/15 104/139/15 98/53/15 97/52/15
f 78/140/18 64/115/18 65/117/18 77/141/18
f 70/132/19 61/142/19 91/57/19 87/39/19
f 67/118/17 68/111/17 100/110/17 99/143/17
f 61/142/20 62/105/20 92/12/20 91/57/20
f 74/137/4 72/131/4 88/42/4 95/49/4
f 104/139/19 57/144/19 82/60/19 98/53/19
f 107/138/4 97/52/4 90/63/4 108/145/4
f 75/112/33 76/128/33 101/109/33
f 108/145/17 90/63/17 89/65/17 105/146/17
f 105/147/16 118/148/16 114/149/16 108/150/16
f 89/65/2 93/71/2 103/151/2 105/146/2
f 101/127/1 117/126/1 115/152/1 100/153/1
f 54/154/34 110/155/34 109/156/34 102/157/34
f 76/158/19 57/159/19 104/160/19
f 101/127/15 76/158/15 104/160/15 107/124/15
f 102/157/16 109/156/16 119/161/16 106/162/16
f 93/71/18 94/46/18 106/133/18 103/151/18
f 113/163/23 119/161/23 111/164/23 112/165/23
f 118/148/24 113/163/24 112/165/24 116/166/24
f 115/152/25 114/149/25 118/148/25 116/166/25
f 117/126/4 120/125/4 114/149/4 115/152/4
f 111/164/3 119/161/3 109/156/3 110/155/3
f 108/150/16 114/149/16 120/125/16 107/124/16
f 77/167/1 112/165/1 111/164/1 78/168/1
f 106/162/16 119/161/16 113/163/16 103/169/16
f 99/170/1 116/166/1 112/165/1 77/167/1
f 100/153/1 115/152/1 116/166/1 99/170/1
f 103/169/16 113/163/16 118/148/16 105/147/16
f 78/168/1 111/164/1 110/155/1 54/154/1
f 54/171/3 124/122/3 64/115/3 78/140/3
f 121/99/16 69/119/16 66/116/16 122/100/16
f 122/100/31 66/116/31 64/115/31 124/122/31
f 124/122/3 54/171/3 53/172/3 62/114/3
f 123/123/4 72/121/4 74/129/4 75/112/4
f 121/99/14 71/98/14 72/121/14 123/123/14
f 75/112/4 68/111/4 123/123/4
f 58/173/4 81/96/4 82/95/4 57/174/4
usemtl M_SpeakerMesh
f 30/175/35 2/176/35 8/177/35
f 2/178/1 1/179/1 7/180/1 8/181/1
f 3/182/36 4/183/36 8/181/36 7/180/36
f 85/184/3 86/185/3 4/183/3 3/182/3
f 85/184/37 3/182/37 7/186/37 83/187/37
f 4/183/38 86/185/38 84/188/38 8/177/38
f 1/189/19 79/190/19 83/187/19 7/186/19
f 80/191/2 30/175/2 8/177/2 84/188/2
f 102/192/39 60/193/39 54/194/39
f 54/195/16 60/196/16 59/197/16 53/198/16
f 55/199/40 59/197/40 60/196/40 56/200/40
f 85/184/3 55/199/3 56/200/3 86/185/3
f 85/184/37 83/187/37 59/201/37 55/199/37
f 56/200/38 60/193/38 84/188/38 86/185/38
f 53/202/19 59/201/19 83/187/19 79/190/19
f 80/191/2 84/188/2 60/193/2 102/192/2
